<?xml version="1.0" encoding="UTF-8" standalone="no"?>
<!DOCTYPE svg PUBLIC "-//W3C//DTD SVG 1.1//EN" "http://www.w3.org/Graphics/SVG/1.1/DTD/svg11.dtd">
<svg width="100%" height="100%" viewBox="0 0 329 411" version="1.1" xmlns="http://www.w3.org/2000/svg" xmlns:xlink="http://www.w3.org/1999/xlink" xml:space="preserve"  style="fill-rule:evenodd;clip-rule:evenodd;stroke-linejoin:round;stroke-miterlimit:2;">
    <g transform="matrix(1,0,0,1,-1033.44,-195.333)">
        <g transform="matrix(1.77165,0,0,80.04,327.394,-85829.6)">
            <g transform="matrix(0.373247,0,0,0.00838138,298.466,1071.86)">
                <g transform="matrix(1.63534,0,0,1.63534,459.514,461.167)">
                    <path d="M0,111.311C7.11,119.665 25.828,139.623 33.955,139.623C42.079,139.623 60.807,119.31 67.908,110.822L67.908,100.043L68.401,99.513C75.469,91.92 82.826,80.081 83.331,70.747C83.507,67.495 83.823,62.516 84.299,55.524L84.361,54.598L85.145,54.098C100.238,44.459 101.21,22.862 99.43,17.63C98.824,15.851 97.8,13.729 96.355,13.729C94.788,13.729 92.336,15.775 89.956,19.069L87.347,22.68L79.517,-26.506L35.743,-5.145L-18.676,-18.707L-13.562,24.326L-17.644,18.992C-19.053,17.15 -22.262,14.556 -24.984,14.556C-25.662,14.556 -27.725,14.556 -29.097,18.594C-30.869,23.801 -28.449,43.96 -14.057,53.705L-13.313,54.207L-13.252,55.103C-12.756,62.379 -12.43,67.497 -12.257,70.748C-11.869,77.899 -7.218,87.978 -0.408,96.422L0,96.927L0,111.311ZM33.955,143.305C22.455,143.305 -0.652,116.255 -3.249,113.171L-3.682,112.658L-3.682,98.222C-9.349,91.047 -15.426,80.278 -15.933,70.946C-16.098,67.843 -16.404,63.025 -16.865,56.233C-31.974,45.385 -34.81,23.954 -32.583,17.409C-30.747,12.009 -27.437,10.875 -24.984,10.875C-22.65,10.875 -20.424,11.883 -18.598,13.139L-22.961,-23.568L35.333,-9.042L82.37,-31.994L89.644,13.694C91.603,11.682 93.938,10.048 96.355,10.048C99.265,10.048 101.471,12.201 102.914,16.445C104.949,22.424 104.185,45.586 87.909,56.683C87.47,63.182 87.174,67.853 87.007,70.946C86.464,80.976 78.955,93.387 71.59,101.485L71.59,112.151L71.167,112.662C68.569,115.798 45.461,143.305 33.955,143.305" style="fill:rgb(103,56,154);fill-rule:nonzero;"/>
                </g>
                <g transform="matrix(1.63534,0,0,1.63534,604.722,363.292)">
                    <path d="M0,45.538C-18.867,45.538 -25.529,63.298 -61.164,60.153C-96.801,57.007 -119.51,29.756 -120.561,0.409C-85.849,13.128 -53.478,-17.76 -23.154,-7.055C17.516,7.299 0,45.538 0,45.538" style="fill:rgb(103,56,154);fill-rule:nonzero;"/>
                </g>
                <g transform="matrix(1.63534,0,0,1.63534,437.671,404.79)">
                    <path d="M0,59.931C0,59.931 -1.71,23.203 11.728,22.004C-1.279,0.47 -9.209,0 -9.209,0C-9.209,0 -25.567,10.667 -17.027,50.198C-10.009,43.473 -3.054,52.463 0,59.931" style="fill:rgb(103,56,154);fill-rule:nonzero;"/>
                </g>
                <g transform="matrix(1.63534,0,0,1.63534,602.165,403.844)">
                    <path d="M0,58.325C0,58.325 -2.731,26.669 -16.168,25.47C-1.864,4.206 5.277,0 5.277,0C5.277,0 23.234,11.246 14.695,50.777C7.677,44.051 3.053,50.857 0,58.325" style="fill:rgb(103,56,154);fill-rule:nonzero;"/>
                </g>
                <g transform="matrix(1.63534,0,0,1.63534,593.067,959.87)">
                    <path d="M0,-186.918L-47.058,-162.689L-95.984,-186.5C-95.984,-186.5 -148.515,-162.21 -168.577,-148.876C-188.638,-135.539 -198.728,-43.488 -198.728,-10.659C-172.135,-4.135 -101.292,0 -33.678,0C25.473,0 82.148,-3.163 104.614,-10.659C104.614,-43.488 97.685,-135.539 77.622,-148.876C57.563,-162.21 0,-186.918 0,-186.918M0.129,-183.09C9.291,-179.115 57.921,-157.814 75.705,-145.993C80.159,-143.032 88.616,-131.376 95.217,-86.573C99.101,-60.209 100.97,-30.77 101.14,-13.206C79.928,-7.087 30.042,-3.461 -33.678,-3.461C-101.537,-3.461 -168.323,-7.61 -195.243,-13.411C-194.983,-30.35 -192.425,-59.811 -187.765,-86.481C-182.049,-119.185 -174.357,-140.876 -166.66,-145.993C-148.923,-157.782 -104.692,-178.614 -96.017,-182.665L-48.573,-159.575L-47.014,-158.817L-45.473,-159.61L0.129,-183.09" style="fill:rgb(65,41,171);fill-rule:nonzero;"/>
                </g>
                <g transform="matrix(1.63534,0,0,1.63534,391.864,872.764)">
                    <path d="M0,-81.418L70.083,40.089L26.561,-128.948L5.386,-114.875C11.838,-107.77 21.013,-93.919 21.426,-93.294C21.674,-92.919 21.746,-92.455 21.623,-92.022C21.5,-91.589 21.195,-91.232 20.787,-91.043L0,-81.418ZM74.398,52.201C73.861,52.201 73.344,51.92 73.061,51.43L-3.517,-81.338C-3.733,-81.713 -3.782,-82.162 -3.651,-82.575C-3.52,-82.988 -3.222,-83.327 -2.829,-83.509L17.851,-93.085C15.05,-97.229 7.008,-108.909 1.91,-114.061C1.585,-114.388 1.424,-114.844 1.471,-115.303C1.518,-115.762 1.768,-116.176 2.152,-116.431L25.746,-132.112L25.556,-132.85L28.545,-133.619L75.893,50.273C76.085,51.02 75.696,51.795 74.981,52.087C74.791,52.164 74.593,52.201 74.398,52.201" style="fill:rgb(65,41,171);fill-rule:nonzero;"/>
                </g>
                <g transform="matrix(1.63534,0,0,1.63534,595.819,951.306)">
                    <path d="M0,-176.588L-44.497,-7.429L28.793,-129.459L8.033,-139.071C7.623,-139.261 7.316,-139.622 7.195,-140.058C7.073,-140.493 7.149,-140.961 7.403,-141.336C7.771,-141.878 15.932,-153.923 22.25,-160.786L0,-176.588ZM-48.74,4.173C-48.94,4.173 -49.144,4.134 -49.339,4.052C-50.046,3.753 -50.427,2.981 -50.231,2.238L-2.417,-179.53C-2.288,-180.02 -1.927,-180.416 -1.451,-180.588C-0.975,-180.761 -0.444,-180.689 -0.031,-180.396L25.489,-162.271C25.858,-162.008 26.094,-161.597 26.133,-161.146C26.172,-160.694 26.011,-160.249 25.692,-159.927C20.681,-154.862 13.609,-144.882 10.988,-141.104L31.648,-131.537C32.046,-131.353 32.347,-131.009 32.475,-130.59C32.604,-130.171 32.549,-129.718 32.323,-129.342L-47.416,3.425C-47.703,3.902 -48.212,4.173 -48.74,4.173" style="fill:rgb(65,41,171);fill-rule:nonzero;"/>
                </g>
                <g transform="matrix(1.63534,0,0,1.63534,384.047,638.038)">
                    <path d="M0,83.991C-0.249,82.708 -5.728,52.203 11.058,21.879C20.975,3.963 45.531,0.122 46.604,0L45.559,5.439C45.329,5.469 24.187,9.51 15.921,24.598C0.236,53.231 5.419,82.651 5.478,82.946L0,83.991Z" style="fill:rgb(103,56,154);fill-rule:nonzero;"/>
                </g>
                <g transform="matrix(1.63534,0,0,1.63534,430.142,906.175)">
                    <path d="M0,-45.968L3.241,-46.533L9.042,-13.282C9.72,-9.37 9.023,-6.167 6.983,-3.747C3.358,0.538 -3.148,0.562 -3.42,0.565L-3.413,-2.73L-3.419,-1.081L-3.413,-2.73C-3.357,-2.731 1.865,-2.768 4.468,-5.886C5.847,-7.521 6.297,-9.818 5.79,-12.714L0,-45.968Z" style="fill:rgb(103,56,154);fill-rule:nonzero;"/>
                </g>
                <g transform="matrix(1.63534,0,0,1.63534,433.036,896.892)">
                    <path d="M0,8.281L-1.549,-0.631C-5.135,-0.014 -7.698,2.488 -7.265,4.954C-6.833,7.419 -3.585,8.912 0,8.281" style="fill:rgb(103,56,154);fill-rule:nonzero;"/>
                </g>
                <g transform="matrix(1.63534,0,0,1.63534,361.137,912.83)">
                    <path d="M0,-45.669L-3.278,-45.333L0.18,-11.759C0.589,-7.81 2.129,-4.913 4.746,-3.136C9.4,0 15.666,-1.741 15.928,-1.819L15.026,-4.983L15.483,-3.399L15.026,-4.983C14.975,-4.972 9.933,-3.594 6.585,-5.88C4.818,-7.079 3.758,-9.173 3.457,-12.092L0,-45.669Z" style="fill:rgb(103,56,154);fill-rule:nonzero;"/>
                </g>
                <g transform="matrix(1.63534,0,0,1.63534,379.916,900.039)">
                    <path d="M0,9.381L-0.925,0.375C2.69,0 5.841,1.715 6.088,4.203C6.344,6.693 3.625,9.008 0,9.381" style="fill:rgb(103,56,154);fill-rule:nonzero;"/>
                </g>
                <g transform="matrix(1.63534,0,0,1.63534,355.732,762.421)">
                    <path d="M0,48.461L-2.381,31.416C-5.375,10.093 7.367,3.75 18.578,2.181C34.19,0 44.473,8.149 46.765,24.54L49.145,41.586L43.213,42.415L40.834,25.365C38.991,12.189 31.783,6.38 19.407,8.108C6.69,9.89 1.649,17.033 3.539,30.584L5.93,47.637L0,48.461Z" style="fill:rgb(103,56,154);fill-rule:nonzero;"/>
                </g>
                <g transform="matrix(1.63534,0,0,1.63534,585.176,834.755)">
                    <path d="M0,-116.278C-0.147,-116.326 -5.248,-117.972 -5.397,-117.992L-5.397,-115.825C49.562,-93.575 34.751,-2.617 34.609,-1.706C34.373,-0.183 35.414,1.241 36.937,1.478C38.46,1.714 39.883,0.671 40.12,-0.85C40.735,-4.828 54.616,-98.436 0,-116.278" style="fill:rgb(103,56,154);fill-rule:nonzero;"/>
                </g>
                <g transform="matrix(1.63534,0,0,1.63534,638.718,834.222)">
                    <path d="M0,28.824C-7.947,27.591 -13.406,20.124 -12.172,12.175C-10.937,4.226 -3.473,-1.233 4.476,0.002C12.42,1.235 17.882,8.702 16.647,16.649C15.414,24.599 7.944,30.057 0,28.824" style="fill:rgb(103,56,154);fill-rule:nonzero;"/>
                </g>
                <g transform="matrix(1.63534,0,0,1.63534,639.532,839.464)">
                    <path d="M0,22.412C-6.177,21.453 -10.423,15.642 -9.465,9.467C-8.505,3.284 -2.697,-0.958 3.479,0.002C9.657,0.961 13.904,6.764 12.944,12.945C11.986,19.122 6.179,23.372 0,22.412M4.416,-6.029C-5.092,-7.507 -14.021,-0.978 -15.497,8.529C-16.974,18.035 -10.445,26.967 -0.937,28.443C8.569,29.919 17.503,23.388 18.979,13.882C20.455,4.379 13.922,-4.555 4.416,-6.029" style="fill:rgb(103,56,154);fill-rule:nonzero;"/>
                </g>
                <g transform="matrix(1.63534,0,0,1.63534,643.504,865.042)">
                    <path d="M0,-8.867C-2.449,-9.245 -4.742,-7.569 -5.122,-5.123C-5.502,-2.675 -3.826,-0.382 -1.377,0C1.071,0.378 3.361,-1.298 3.741,-3.746C4.121,-6.193 2.447,-8.486 0,-8.867" style="fill:rgb(103,56,154);fill-rule:nonzero;"/>
                </g>
                <g transform="matrix(1.63534,0,0,1.63534,524.578,706.012)">
                    <path d="M0,0C0,-2.859 -2.317,-5.177 -5.177,-5.177C-8.036,-5.177 -10.354,-2.859 -10.354,0C-10.354,2.859 -8.036,5.177 -5.177,5.177C-2.317,5.177 0,2.859 0,0" style="fill:rgb(103,56,154);fill-rule:nonzero;"/>
                </g>
                <g transform="matrix(1.63534,0,0,1.63534,524.578,765.07)">
                    <path d="M0,0C0,-2.859 -2.317,-5.177 -5.177,-5.177C-8.036,-5.177 -10.354,-2.859 -10.354,0C-10.354,2.859 -8.036,5.177 -5.177,5.177C-2.317,5.177 0,2.859 0,0" style="fill:rgb(103,56,154);fill-rule:nonzero;"/>
                </g>
                <g transform="matrix(1.63534,0,0,1.63534,524.578,824.125)">
                    <path d="M0,0.001C0,-2.857 -2.317,-5.176 -5.177,-5.176C-8.036,-5.176 -10.354,-2.857 -10.354,0.001C-10.354,2.859 -8.036,5.177 -5.177,5.177C-2.317,5.177 0,2.859 0,0.001" style="fill:rgb(103,56,154);fill-rule:nonzero;"/>
                </g>
                <g transform="matrix(1.63534,0,0,1.63534,524.578,883.184)">
                    <path d="M0,-0.001C0,-2.859 -2.317,-5.178 -5.177,-5.178C-8.036,-5.178 -10.354,-2.859 -10.354,-0.001C-10.354,2.858 -8.036,5.177 -5.177,5.177C-2.317,5.177 0,2.858 0,-0.001" style="fill:rgb(103,56,154);fill-rule:nonzero;"/>
                </g>
            </g>
        </g>
    </g>
</svg>
